<svg width="268" height="299" viewBox="0 0 268 299" fill="none" xmlns="http://www.w3.org/2000/svg">
<rect width="268" height="299" fill="#F4F4F4"/>
<rect x="9" y="12" width="250" height="233" fill="#492626"/>
<path d="M73.36 278.12C72.3067 278.12 71.3333 277.947 70.44 277.6C69.5467 277.24 68.7733 276.74 68.12 276.1C67.4667 275.46 66.9533 274.707 66.58 273.84C66.22 272.973 66.04 272.027 66.04 271C66.04 269.973 66.22 269.027 66.58 268.16C66.9533 267.293 67.4667 266.54 68.12 265.9C68.7867 265.26 69.5667 264.767 70.46 264.42C71.3533 264.06 72.3267 263.88 73.38 263.88C74.3933 263.88 75.3467 264.053 76.24 264.4C77.1333 264.733 77.8867 265.24 78.5 265.92L77.56 266.86C76.9867 266.273 76.3533 265.853 75.66 265.6C74.9667 265.333 74.22 265.2 73.42 265.2C72.58 265.2 71.8 265.347 71.08 265.64C70.36 265.92 69.7333 266.327 69.2 266.86C68.6667 267.38 68.2467 267.993 67.94 268.7C67.6467 269.393 67.5 270.16 67.5 271C67.5 271.84 67.6467 272.613 67.94 273.32C68.2467 274.013 68.6667 274.627 69.2 275.16C69.7333 275.68 70.36 276.087 71.08 276.38C71.8 276.66 72.58 276.8 73.42 276.8C74.22 276.8 74.9667 276.667 75.66 276.4C76.3533 276.133 76.9867 275.707 77.56 275.12L78.5 276.06C77.8867 276.74 77.1333 277.253 76.24 277.6C75.3467 277.947 74.3867 278.12 73.36 278.12ZM85.1663 278.1C84.1529 278.1 83.2396 277.873 82.4263 277.42C81.6263 276.953 80.9929 276.32 80.5263 275.52C80.0596 274.707 79.8263 273.78 79.8263 272.74C79.8263 271.687 80.0596 270.76 80.5263 269.96C80.9929 269.16 81.6263 268.533 82.4263 268.08C83.2263 267.627 84.1396 267.4 85.1663 267.4C86.2063 267.4 87.1263 267.627 87.9263 268.08C88.7396 268.533 89.3729 269.16 89.8263 269.96C90.2929 270.76 90.5263 271.687 90.5263 272.74C90.5263 273.78 90.2929 274.707 89.8263 275.52C89.3729 276.32 88.7396 276.953 87.9263 277.42C87.1129 277.873 86.1929 278.1 85.1663 278.1ZM85.1663 276.84C85.9263 276.84 86.5996 276.673 87.1863 276.34C87.7729 275.993 88.2329 275.513 88.5663 274.9C88.9129 274.273 89.0863 273.553 89.0863 272.74C89.0863 271.913 88.9129 271.193 88.5663 270.58C88.2329 269.967 87.7729 269.493 87.1863 269.16C86.5996 268.813 85.9329 268.64 85.1863 268.64C84.4396 268.64 83.7729 268.813 83.1863 269.16C82.5996 269.493 82.1329 269.967 81.7863 270.58C81.4396 271.193 81.2663 271.913 81.2663 272.74C81.2663 273.553 81.4396 274.273 81.7863 274.9C82.1329 275.513 82.5996 275.993 83.1863 276.34C83.7729 276.673 84.4329 276.84 85.1663 276.84ZM93.4253 278V263.16H94.8453V278H93.4253ZM103.076 278.1C102.063 278.1 101.15 277.873 100.336 277.42C99.5364 276.953 98.9031 276.32 98.4364 275.52C97.9697 274.707 97.7364 273.78 97.7364 272.74C97.7364 271.687 97.9697 270.76 98.4364 269.96C98.9031 269.16 99.5364 268.533 100.336 268.08C101.136 267.627 102.05 267.4 103.076 267.4C104.116 267.4 105.036 267.627 105.836 268.08C106.65 268.533 107.283 269.16 107.736 269.96C108.203 270.76 108.436 271.687 108.436 272.74C108.436 273.78 108.203 274.707 107.736 275.52C107.283 276.32 106.65 276.953 105.836 277.42C105.023 277.873 104.103 278.1 103.076 278.1ZM103.076 276.84C103.836 276.84 104.51 276.673 105.096 276.34C105.683 275.993 106.143 275.513 106.476 274.9C106.823 274.273 106.996 273.553 106.996 272.74C106.996 271.913 106.823 271.193 106.476 270.58C106.143 269.967 105.683 269.493 105.096 269.16C104.51 268.813 103.843 268.64 103.096 268.64C102.35 268.64 101.683 268.813 101.096 269.16C100.51 269.493 100.043 269.967 99.6964 270.58C99.3497 271.193 99.1764 271.913 99.1764 272.74C99.1764 273.553 99.3497 274.273 99.6964 274.9C100.043 275.513 100.51 275.993 101.096 276.34C101.683 276.673 102.343 276.84 103.076 276.84ZM111.335 278V267.5H112.695V270.36L112.555 269.86C112.849 269.06 113.342 268.453 114.035 268.04C114.729 267.613 115.589 267.4 116.615 267.4V268.78C116.562 268.78 116.509 268.78 116.455 268.78C116.402 268.767 116.349 268.76 116.295 268.76C115.189 268.76 114.322 269.1 113.695 269.78C113.069 270.447 112.755 271.4 112.755 272.64V278H111.335ZM119.503 269.58C119.209 269.58 118.956 269.473 118.743 269.26C118.543 269.047 118.443 268.787 118.443 268.48C118.443 268.16 118.543 267.9 118.743 267.7C118.956 267.5 119.209 267.4 119.503 267.4C119.796 267.4 120.043 267.5 120.243 267.7C120.456 267.9 120.563 268.16 120.563 268.48C120.563 268.787 120.456 269.047 120.243 269.26C120.043 269.473 119.796 269.58 119.503 269.58ZM119.503 278.1C119.209 278.1 118.956 277.993 118.743 277.78C118.543 277.567 118.443 277.307 118.443 277C118.443 276.68 118.543 276.42 118.743 276.22C118.956 276.02 119.209 275.92 119.503 275.92C119.796 275.92 120.043 276.02 120.243 276.22C120.456 276.42 120.563 276.68 120.563 277C120.563 277.307 120.456 277.567 120.243 277.78C120.043 277.993 119.796 278.1 119.503 278.1ZM135.015 278L136.735 264H137.815L136.095 278H135.015ZM127.435 274.2V273.1H139.535V274.2H127.435ZM129.815 278L131.535 264H132.635L130.895 278H129.815ZM128.075 268.9V267.8H140.175V268.9H128.075ZM141.581 274.32V273.28L149.001 264H150.601L143.241 273.28L142.461 273.04H153.721V274.32H141.581ZM149.481 278V274.32L149.521 273.04V269.8H150.921V278H149.481ZM159.248 263.88C160.488 263.88 161.534 264.16 162.388 264.72C163.241 265.267 163.888 266.06 164.328 267.1C164.768 268.14 164.988 269.4 164.988 270.88C164.988 272.453 164.714 273.78 164.168 274.86C163.634 275.94 162.888 276.753 161.928 277.3C160.968 277.847 159.854 278.12 158.588 278.12C157.961 278.12 157.361 278.06 156.788 277.94C156.228 277.82 155.721 277.627 155.268 277.36L155.848 276.2C156.208 276.44 156.621 276.613 157.088 276.72C157.568 276.813 158.061 276.86 158.568 276.86C160.074 276.86 161.274 276.38 162.168 275.42C163.074 274.46 163.528 273.027 163.528 271.12C163.528 270.813 163.508 270.447 163.468 270.02C163.441 269.593 163.368 269.167 163.248 268.74L163.748 269.12C163.614 269.813 163.328 270.407 162.888 270.9C162.461 271.38 161.928 271.747 161.288 272C160.661 272.253 159.961 272.38 159.188 272.38C158.268 272.38 157.448 272.207 156.728 271.86C156.021 271.513 155.468 271.027 155.068 270.4C154.668 269.773 154.468 269.033 154.468 268.18C154.468 267.3 154.674 266.54 155.088 265.9C155.501 265.26 156.068 264.767 156.788 264.42C157.521 264.06 158.341 263.88 159.248 263.88ZM159.308 265.1C158.641 265.1 158.048 265.227 157.528 265.48C157.021 265.72 156.621 266.067 156.328 266.52C156.034 266.973 155.888 267.513 155.888 268.14C155.888 269.06 156.201 269.793 156.828 270.34C157.468 270.887 158.328 271.16 159.408 271.16C160.128 271.16 160.754 271.027 161.288 270.76C161.834 270.493 162.254 270.127 162.548 269.66C162.854 269.193 163.008 268.673 163.008 268.1C163.008 267.58 162.868 267.093 162.588 266.64C162.308 266.187 161.894 265.82 161.348 265.54C160.801 265.247 160.121 265.1 159.308 265.1ZM166.815 278V276.98L172.635 271.28C173.168 270.76 173.568 270.307 173.835 269.92C174.102 269.52 174.282 269.147 174.375 268.8C174.468 268.453 174.515 268.127 174.515 267.82C174.515 267.007 174.235 266.367 173.675 265.9C173.128 265.433 172.315 265.2 171.235 265.2C170.408 265.2 169.675 265.327 169.035 265.58C168.408 265.833 167.868 266.227 167.415 266.76L166.395 265.88C166.942 265.24 167.642 264.747 168.495 264.4C169.348 264.053 170.302 263.88 171.355 263.88C172.302 263.88 173.122 264.033 173.815 264.34C174.508 264.633 175.042 265.067 175.415 265.64C175.802 266.213 175.995 266.887 175.995 267.66C175.995 268.113 175.928 268.56 175.795 269C175.675 269.44 175.448 269.907 175.115 270.4C174.795 270.88 174.322 271.427 173.695 272.04L168.355 277.28L167.955 276.72H176.635V278H166.815ZM184.143 278.12C182.903 278.12 181.857 277.847 181.003 277.3C180.15 276.74 179.503 275.94 179.063 274.9C178.623 273.847 178.403 272.587 178.403 271.12C178.403 269.533 178.67 268.207 179.203 267.14C179.75 266.06 180.503 265.247 181.463 264.7C182.423 264.153 183.537 263.88 184.803 263.88C185.43 263.88 186.03 263.94 186.603 264.06C187.177 264.18 187.683 264.373 188.123 264.64L187.543 265.8C187.183 265.56 186.77 265.393 186.303 265.3C185.837 265.193 185.343 265.14 184.823 265.14C183.317 265.14 182.11 265.62 181.203 266.58C180.31 267.54 179.863 268.973 179.863 270.88C179.863 271.173 179.877 271.54 179.903 271.98C179.943 272.407 180.023 272.833 180.143 273.26L179.643 272.88C179.79 272.187 180.077 271.6 180.503 271.12C180.93 270.627 181.463 270.253 182.103 270C182.743 269.747 183.443 269.62 184.203 269.62C185.137 269.62 185.957 269.793 186.663 270.14C187.37 270.487 187.923 270.973 188.323 271.6C188.723 272.227 188.923 272.967 188.923 273.82C188.923 274.687 188.717 275.447 188.303 276.1C187.89 276.74 187.317 277.24 186.583 277.6C185.863 277.947 185.05 278.12 184.143 278.12ZM184.083 276.9C184.75 276.9 185.337 276.78 185.843 276.54C186.363 276.287 186.77 275.933 187.063 275.48C187.357 275.013 187.503 274.473 187.503 273.86C187.503 272.94 187.183 272.207 186.543 271.66C185.917 271.113 185.063 270.84 183.983 270.84C183.263 270.84 182.637 270.973 182.103 271.24C181.57 271.507 181.15 271.873 180.843 272.34C180.537 272.793 180.383 273.313 180.383 273.9C180.383 274.407 180.523 274.893 180.803 275.36C181.083 275.813 181.497 276.187 182.043 276.48C182.603 276.76 183.283 276.9 184.083 276.9ZM190.331 278V276.98L196.151 271.28C196.684 270.76 197.084 270.307 197.351 269.92C197.617 269.52 197.797 269.147 197.891 268.8C197.984 268.453 198.031 268.127 198.031 267.82C198.031 267.007 197.751 266.367 197.191 265.9C196.644 265.433 195.831 265.2 194.751 265.2C193.924 265.2 193.191 265.327 192.551 265.58C191.924 265.833 191.384 266.227 190.931 266.76L189.911 265.88C190.457 265.24 191.157 264.747 192.011 264.4C192.864 264.053 193.817 263.88 194.871 263.88C195.817 263.88 196.637 264.033 197.331 264.34C198.024 264.633 198.557 265.067 198.931 265.64C199.317 266.213 199.511 266.887 199.511 267.66C199.511 268.113 199.444 268.56 199.311 269C199.191 269.44 198.964 269.907 198.631 270.4C198.311 270.88 197.837 271.427 197.211 272.04L191.871 277.28L191.471 276.72H200.151V278H190.331ZM207.659 278.12C206.419 278.12 205.372 277.847 204.519 277.3C203.666 276.74 203.019 275.94 202.579 274.9C202.139 273.847 201.919 272.587 201.919 271.12C201.919 269.533 202.186 268.207 202.719 267.14C203.266 266.06 204.019 265.247 204.979 264.7C205.939 264.153 207.052 263.88 208.319 263.88C208.946 263.88 209.546 263.94 210.119 264.06C210.692 264.18 211.199 264.373 211.639 264.64L211.059 265.8C210.699 265.56 210.286 265.393 209.819 265.3C209.352 265.193 208.859 265.14 208.339 265.14C206.832 265.14 205.626 265.62 204.719 266.58C203.826 267.54 203.379 268.973 203.379 270.88C203.379 271.173 203.392 271.54 203.419 271.98C203.459 272.407 203.539 272.833 203.659 273.26L203.159 272.88C203.306 272.187 203.592 271.6 204.019 271.12C204.446 270.627 204.979 270.253 205.619 270C206.259 269.747 206.959 269.62 207.719 269.62C208.652 269.62 209.472 269.793 210.179 270.14C210.886 270.487 211.439 270.973 211.839 271.6C212.239 272.227 212.439 272.967 212.439 273.82C212.439 274.687 212.232 275.447 211.819 276.1C211.406 276.74 210.832 277.24 210.099 277.6C209.379 277.947 208.566 278.12 207.659 278.12ZM207.599 276.9C208.266 276.9 208.852 276.78 209.359 276.54C209.879 276.287 210.286 275.933 210.579 275.48C210.872 275.013 211.019 274.473 211.019 273.86C211.019 272.94 210.699 272.207 210.059 271.66C209.432 271.113 208.579 270.84 207.499 270.84C206.779 270.84 206.152 270.973 205.619 271.24C205.086 271.507 204.666 271.873 204.359 272.34C204.052 272.793 203.899 273.313 203.899 273.9C203.899 274.407 204.039 274.893 204.319 275.36C204.599 275.813 205.012 276.187 205.559 276.48C206.119 276.76 206.799 276.9 207.599 276.9Z" fill="#222222"/>
</svg>
