<svg width="268" height="299" viewBox="0 0 268 299" fill="none" xmlns="http://www.w3.org/2000/svg">
<rect width="268" height="299" fill="#F4F4F4"/>
<rect x="9" y="12" width="250" height="233" fill="#A98989"/>
<path d="M73.36 278.12C72.3067 278.12 71.3333 277.947 70.44 277.6C69.5467 277.24 68.7733 276.74 68.12 276.1C67.4667 275.46 66.9533 274.707 66.58 273.84C66.22 272.973 66.04 272.027 66.04 271C66.04 269.973 66.22 269.027 66.58 268.16C66.9533 267.293 67.4667 266.54 68.12 265.9C68.7867 265.26 69.5667 264.767 70.46 264.42C71.3533 264.06 72.3267 263.88 73.38 263.88C74.3933 263.88 75.3467 264.053 76.24 264.4C77.1333 264.733 77.8867 265.24 78.5 265.92L77.56 266.86C76.9867 266.273 76.3533 265.853 75.66 265.6C74.9667 265.333 74.22 265.2 73.42 265.2C72.58 265.2 71.8 265.347 71.08 265.64C70.36 265.92 69.7333 266.327 69.2 266.86C68.6667 267.38 68.2467 267.993 67.94 268.7C67.6467 269.393 67.5 270.16 67.5 271C67.5 271.84 67.6467 272.613 67.94 273.32C68.2467 274.013 68.6667 274.627 69.2 275.16C69.7333 275.68 70.36 276.087 71.08 276.38C71.8 276.66 72.58 276.8 73.42 276.8C74.22 276.8 74.9667 276.667 75.66 276.4C76.3533 276.133 76.9867 275.707 77.56 275.12L78.5 276.06C77.8867 276.74 77.1333 277.253 76.24 277.6C75.3467 277.947 74.3867 278.12 73.36 278.12ZM85.1663 278.1C84.1529 278.1 83.2396 277.873 82.4263 277.42C81.6263 276.953 80.9929 276.32 80.5263 275.52C80.0596 274.707 79.8263 273.78 79.8263 272.74C79.8263 271.687 80.0596 270.76 80.5263 269.96C80.9929 269.16 81.6263 268.533 82.4263 268.08C83.2263 267.627 84.1396 267.4 85.1663 267.4C86.2063 267.4 87.1263 267.627 87.9263 268.08C88.7396 268.533 89.3729 269.16 89.8263 269.96C90.2929 270.76 90.5263 271.687 90.5263 272.74C90.5263 273.78 90.2929 274.707 89.8263 275.52C89.3729 276.32 88.7396 276.953 87.9263 277.42C87.1129 277.873 86.1929 278.1 85.1663 278.1ZM85.1663 276.84C85.9263 276.84 86.5996 276.673 87.1863 276.34C87.7729 275.993 88.2329 275.513 88.5663 274.9C88.9129 274.273 89.0863 273.553 89.0863 272.74C89.0863 271.913 88.9129 271.193 88.5663 270.58C88.2329 269.967 87.7729 269.493 87.1863 269.16C86.5996 268.813 85.9329 268.64 85.1863 268.64C84.4396 268.64 83.7729 268.813 83.1863 269.16C82.5996 269.493 82.1329 269.967 81.7863 270.58C81.4396 271.193 81.2663 271.913 81.2663 272.74C81.2663 273.553 81.4396 274.273 81.7863 274.9C82.1329 275.513 82.5996 275.993 83.1863 276.34C83.7729 276.673 84.4329 276.84 85.1663 276.84ZM93.4253 278V263.16H94.8453V278H93.4253ZM103.076 278.1C102.063 278.1 101.15 277.873 100.336 277.42C99.5364 276.953 98.9031 276.32 98.4364 275.52C97.9697 274.707 97.7364 273.78 97.7364 272.74C97.7364 271.687 97.9697 270.76 98.4364 269.96C98.9031 269.16 99.5364 268.533 100.336 268.08C101.136 267.627 102.05 267.4 103.076 267.4C104.116 267.4 105.036 267.627 105.836 268.08C106.65 268.533 107.283 269.16 107.736 269.96C108.203 270.76 108.436 271.687 108.436 272.74C108.436 273.78 108.203 274.707 107.736 275.52C107.283 276.32 106.65 276.953 105.836 277.42C105.023 277.873 104.103 278.1 103.076 278.1ZM103.076 276.84C103.836 276.84 104.51 276.673 105.096 276.34C105.683 275.993 106.143 275.513 106.476 274.9C106.823 274.273 106.996 273.553 106.996 272.74C106.996 271.913 106.823 271.193 106.476 270.58C106.143 269.967 105.683 269.493 105.096 269.16C104.51 268.813 103.843 268.64 103.096 268.64C102.35 268.64 101.683 268.813 101.096 269.16C100.51 269.493 100.043 269.967 99.6964 270.58C99.3497 271.193 99.1764 271.913 99.1764 272.74C99.1764 273.553 99.3497 274.273 99.6964 274.9C100.043 275.513 100.51 275.993 101.096 276.34C101.683 276.673 102.343 276.84 103.076 276.84ZM111.335 278V267.5H112.695V270.36L112.555 269.86C112.849 269.06 113.342 268.453 114.035 268.04C114.729 267.613 115.589 267.4 116.615 267.4V268.78C116.562 268.78 116.509 268.78 116.455 268.78C116.402 268.767 116.349 268.76 116.295 268.76C115.189 268.76 114.322 269.1 113.695 269.78C113.069 270.447 112.755 271.4 112.755 272.64V278H111.335ZM119.503 269.58C119.209 269.58 118.956 269.473 118.743 269.26C118.543 269.047 118.443 268.787 118.443 268.48C118.443 268.16 118.543 267.9 118.743 267.7C118.956 267.5 119.209 267.4 119.503 267.4C119.796 267.4 120.043 267.5 120.243 267.7C120.456 267.9 120.563 268.16 120.563 268.48C120.563 268.787 120.456 269.047 120.243 269.26C120.043 269.473 119.796 269.58 119.503 269.58ZM119.503 278.1C119.209 278.1 118.956 277.993 118.743 277.78C118.543 277.567 118.443 277.307 118.443 277C118.443 276.68 118.543 276.42 118.743 276.22C118.956 276.02 119.209 275.92 119.503 275.92C119.796 275.92 120.043 276.02 120.243 276.22C120.456 276.42 120.563 276.68 120.563 277C120.563 277.307 120.456 277.567 120.243 277.78C120.043 277.993 119.796 278.1 119.503 278.1ZM135.015 278L136.735 264H137.815L136.095 278H135.015ZM127.435 274.2V273.1H139.535V274.2H127.435ZM129.815 278L131.535 264H132.635L130.895 278H129.815ZM128.075 268.9V267.8H140.175V268.9H128.075ZM140.821 278L147.221 264H148.681L155.081 278H153.521L147.641 264.86H148.241L142.361 278H140.821ZM143.341 274.26L143.781 273.06H151.921L152.361 274.26H143.341ZM160.244 263.88C161.484 263.88 162.53 264.16 163.384 264.72C164.237 265.267 164.884 266.06 165.324 267.1C165.764 268.14 165.984 269.4 165.984 270.88C165.984 272.453 165.71 273.78 165.164 274.86C164.63 275.94 163.884 276.753 162.924 277.3C161.964 277.847 160.85 278.12 159.584 278.12C158.957 278.12 158.357 278.06 157.784 277.94C157.224 277.82 156.717 277.627 156.264 277.36L156.844 276.2C157.204 276.44 157.617 276.613 158.084 276.72C158.564 276.813 159.057 276.86 159.564 276.86C161.07 276.86 162.27 276.38 163.164 275.42C164.07 274.46 164.524 273.027 164.524 271.12C164.524 270.813 164.504 270.447 164.464 270.02C164.437 269.593 164.364 269.167 164.244 268.74L164.744 269.12C164.61 269.813 164.324 270.407 163.884 270.9C163.457 271.38 162.924 271.747 162.284 272C161.657 272.253 160.957 272.38 160.184 272.38C159.264 272.38 158.444 272.207 157.724 271.86C157.017 271.513 156.464 271.027 156.064 270.4C155.664 269.773 155.464 269.033 155.464 268.18C155.464 267.3 155.67 266.54 156.084 265.9C156.497 265.26 157.064 264.767 157.784 264.42C158.517 264.06 159.337 263.88 160.244 263.88ZM160.304 265.1C159.637 265.1 159.044 265.227 158.524 265.48C158.017 265.72 157.617 266.067 157.324 266.52C157.03 266.973 156.884 267.513 156.884 268.14C156.884 269.06 157.197 269.793 157.824 270.34C158.464 270.887 159.324 271.16 160.404 271.16C161.124 271.16 161.75 271.027 162.284 270.76C162.83 270.493 163.25 270.127 163.544 269.66C163.85 269.193 164.004 268.673 164.004 268.1C164.004 267.58 163.864 267.093 163.584 266.64C163.304 266.187 162.89 265.82 162.344 265.54C161.797 265.247 161.117 265.1 160.304 265.1ZM173.391 278.12C172.271 278.12 171.305 277.96 170.491 277.64C169.691 277.32 169.071 276.86 168.631 276.26C168.205 275.647 167.991 274.927 167.991 274.1C167.991 273.3 168.198 272.62 168.611 272.06C169.038 271.487 169.651 271.047 170.451 270.74C171.265 270.433 172.245 270.28 173.391 270.28C174.525 270.28 175.498 270.433 176.311 270.74C177.125 271.047 177.745 271.487 178.171 272.06C178.611 272.62 178.831 273.3 178.831 274.1C178.831 274.927 178.611 275.647 178.171 276.26C177.731 276.86 177.105 277.32 176.291 277.64C175.478 277.96 174.511 278.12 173.391 278.12ZM173.391 276.9C174.631 276.9 175.598 276.647 176.291 276.14C176.998 275.633 177.351 274.947 177.351 274.08C177.351 273.213 176.998 272.533 176.291 272.04C175.598 271.533 174.631 271.28 173.391 271.28C172.151 271.28 171.185 271.533 170.491 272.04C169.798 272.533 169.451 273.213 169.451 274.08C169.451 274.947 169.798 275.633 170.491 276.14C171.185 276.647 172.151 276.9 173.391 276.9ZM173.391 271.1C172.351 271.1 171.465 270.96 170.731 270.68C170.011 270.4 169.458 270 169.071 269.48C168.685 268.947 168.491 268.313 168.491 267.58C168.491 266.807 168.691 266.147 169.091 265.6C169.505 265.04 170.078 264.613 170.811 264.32C171.545 264.027 172.405 263.88 173.391 263.88C174.378 263.88 175.238 264.027 175.971 264.32C176.718 264.613 177.298 265.04 177.711 265.6C178.125 266.147 178.331 266.807 178.331 267.58C178.331 268.313 178.138 268.947 177.751 269.48C177.365 270 176.798 270.4 176.051 270.68C175.318 270.96 174.431 271.1 173.391 271.1ZM173.391 270.14C174.485 270.14 175.338 269.913 175.951 269.46C176.565 269.007 176.871 268.4 176.871 267.64C176.871 266.84 176.551 266.22 175.911 265.78C175.285 265.327 174.445 265.1 173.391 265.1C172.338 265.1 171.498 265.327 170.871 265.78C170.245 266.22 169.931 266.833 169.931 267.62C169.931 268.393 170.231 269.007 170.831 269.46C171.445 269.913 172.298 270.14 173.391 270.14ZM185.185 263.88C186.425 263.88 187.472 264.16 188.325 264.72C189.178 265.267 189.825 266.06 190.265 267.1C190.705 268.14 190.925 269.4 190.925 270.88C190.925 272.453 190.652 273.78 190.105 274.86C189.572 275.94 188.825 276.753 187.865 277.3C186.905 277.847 185.792 278.12 184.525 278.12C183.898 278.12 183.298 278.06 182.725 277.94C182.165 277.82 181.658 277.627 181.205 277.36L181.785 276.2C182.145 276.44 182.558 276.613 183.025 276.72C183.505 276.813 183.998 276.86 184.505 276.86C186.012 276.86 187.212 276.38 188.105 275.42C189.012 274.46 189.465 273.027 189.465 271.12C189.465 270.813 189.445 270.447 189.405 270.02C189.378 269.593 189.305 269.167 189.185 268.74L189.685 269.12C189.552 269.813 189.265 270.407 188.825 270.9C188.398 271.38 187.865 271.747 187.225 272C186.598 272.253 185.898 272.38 185.125 272.38C184.205 272.38 183.385 272.207 182.665 271.86C181.958 271.513 181.405 271.027 181.005 270.4C180.605 269.773 180.405 269.033 180.405 268.18C180.405 267.3 180.612 266.54 181.025 265.9C181.438 265.26 182.005 264.767 182.725 264.42C183.458 264.06 184.278 263.88 185.185 263.88ZM185.245 265.1C184.578 265.1 183.985 265.227 183.465 265.48C182.958 265.72 182.558 266.067 182.265 266.52C181.972 266.973 181.825 267.513 181.825 268.14C181.825 269.06 182.138 269.793 182.765 270.34C183.405 270.887 184.265 271.16 185.345 271.16C186.065 271.16 186.692 271.027 187.225 270.76C187.772 270.493 188.192 270.127 188.485 269.66C188.792 269.193 188.945 268.673 188.945 268.1C188.945 267.58 188.805 267.093 188.525 266.64C188.245 266.187 187.832 265.82 187.285 265.54C186.738 265.247 186.058 265.1 185.245 265.1ZM198.333 278.12C197.213 278.12 196.246 277.96 195.433 277.64C194.633 277.32 194.013 276.86 193.573 276.26C193.146 275.647 192.933 274.927 192.933 274.1C192.933 273.3 193.139 272.62 193.553 272.06C193.979 271.487 194.593 271.047 195.393 270.74C196.206 270.433 197.186 270.28 198.333 270.28C199.466 270.28 200.439 270.433 201.253 270.74C202.066 271.047 202.686 271.487 203.113 272.06C203.553 272.62 203.773 273.3 203.773 274.1C203.773 274.927 203.553 275.647 203.113 276.26C202.673 276.86 202.046 277.32 201.233 277.64C200.419 277.96 199.453 278.12 198.333 278.12ZM198.333 276.9C199.573 276.9 200.539 276.647 201.233 276.14C201.939 275.633 202.293 274.947 202.293 274.08C202.293 273.213 201.939 272.533 201.233 272.04C200.539 271.533 199.573 271.28 198.333 271.28C197.093 271.28 196.126 271.533 195.433 272.04C194.739 272.533 194.393 273.213 194.393 274.08C194.393 274.947 194.739 275.633 195.433 276.14C196.126 276.647 197.093 276.9 198.333 276.9ZM198.333 271.1C197.293 271.1 196.406 270.96 195.673 270.68C194.953 270.4 194.399 270 194.013 269.48C193.626 268.947 193.433 268.313 193.433 267.58C193.433 266.807 193.633 266.147 194.033 265.6C194.446 265.04 195.019 264.613 195.753 264.32C196.486 264.027 197.346 263.88 198.333 263.88C199.319 263.88 200.179 264.027 200.913 264.32C201.659 264.613 202.239 265.04 202.653 265.6C203.066 266.147 203.273 266.807 203.273 267.58C203.273 268.313 203.079 268.947 202.693 269.48C202.306 270 201.739 270.4 200.993 270.68C200.259 270.96 199.373 271.1 198.333 271.1ZM198.333 270.14C199.426 270.14 200.279 269.913 200.893 269.46C201.506 269.007 201.813 268.4 201.813 267.64C201.813 266.84 201.493 266.22 200.853 265.78C200.226 265.327 199.386 265.1 198.333 265.1C197.279 265.1 196.439 265.327 195.813 265.78C195.186 266.22 194.873 266.833 194.873 267.62C194.873 268.393 195.173 269.007 195.773 269.46C196.386 269.913 197.239 270.14 198.333 270.14ZM210.127 263.88C211.367 263.88 212.413 264.16 213.267 264.72C214.12 265.267 214.767 266.06 215.207 267.1C215.647 268.14 215.867 269.4 215.867 270.88C215.867 272.453 215.593 273.78 215.047 274.86C214.513 275.94 213.767 276.753 212.807 277.3C211.847 277.847 210.733 278.12 209.467 278.12C208.84 278.12 208.24 278.06 207.667 277.94C207.107 277.82 206.6 277.627 206.147 277.36L206.727 276.2C207.087 276.44 207.5 276.613 207.967 276.72C208.447 276.813 208.94 276.86 209.447 276.86C210.953 276.86 212.153 276.38 213.047 275.42C213.953 274.46 214.407 273.027 214.407 271.12C214.407 270.813 214.387 270.447 214.347 270.02C214.32 269.593 214.247 269.167 214.127 268.74L214.627 269.12C214.493 269.813 214.207 270.407 213.767 270.9C213.34 271.38 212.807 271.747 212.167 272C211.54 272.253 210.84 272.38 210.067 272.38C209.147 272.38 208.327 272.207 207.607 271.86C206.9 271.513 206.347 271.027 205.947 270.4C205.547 269.773 205.347 269.033 205.347 268.18C205.347 267.3 205.553 266.54 205.967 265.9C206.38 265.26 206.947 264.767 207.667 264.42C208.4 264.06 209.22 263.88 210.127 263.88ZM210.187 265.1C209.52 265.1 208.927 265.227 208.407 265.48C207.9 265.72 207.5 266.067 207.207 266.52C206.913 266.973 206.767 267.513 206.767 268.14C206.767 269.06 207.08 269.793 207.707 270.34C208.347 270.887 209.207 271.16 210.287 271.16C211.007 271.16 211.633 271.027 212.167 270.76C212.713 270.493 213.133 270.127 213.427 269.66C213.733 269.193 213.887 268.673 213.887 268.1C213.887 267.58 213.747 267.093 213.467 266.64C213.187 266.187 212.773 265.82 212.227 265.54C211.68 265.247 211 265.1 210.187 265.1Z" fill="#222222"/>
</svg>
