<svg width="268" height="299" viewBox="0 0 268 299" fill="none" xmlns="http://www.w3.org/2000/svg">
<rect width="268" height="299" fill="#F4F4F4"/>
<rect x="9" y="12" width="250" height="233" fill="#981212"/>
<path d="M73.36 278.12C72.3067 278.12 71.3333 277.947 70.44 277.6C69.5467 277.24 68.7733 276.74 68.12 276.1C67.4667 275.46 66.9533 274.707 66.58 273.84C66.22 272.973 66.04 272.027 66.04 271C66.04 269.973 66.22 269.027 66.58 268.16C66.9533 267.293 67.4667 266.54 68.12 265.9C68.7867 265.26 69.5667 264.767 70.46 264.42C71.3533 264.06 72.3267 263.88 73.38 263.88C74.3933 263.88 75.3467 264.053 76.24 264.4C77.1333 264.733 77.8867 265.24 78.5 265.92L77.56 266.86C76.9867 266.273 76.3533 265.853 75.66 265.6C74.9667 265.333 74.22 265.2 73.42 265.2C72.58 265.2 71.8 265.347 71.08 265.64C70.36 265.92 69.7333 266.327 69.2 266.86C68.6667 267.38 68.2467 267.993 67.94 268.7C67.6467 269.393 67.5 270.16 67.5 271C67.5 271.84 67.6467 272.613 67.94 273.32C68.2467 274.013 68.6667 274.627 69.2 275.16C69.7333 275.68 70.36 276.087 71.08 276.38C71.8 276.66 72.58 276.8 73.42 276.8C74.22 276.8 74.9667 276.667 75.66 276.4C76.3533 276.133 76.9867 275.707 77.56 275.12L78.5 276.06C77.8867 276.74 77.1333 277.253 76.24 277.6C75.3467 277.947 74.3867 278.12 73.36 278.12ZM85.1663 278.1C84.1529 278.1 83.2396 277.873 82.4263 277.42C81.6263 276.953 80.9929 276.32 80.5263 275.52C80.0596 274.707 79.8263 273.78 79.8263 272.74C79.8263 271.687 80.0596 270.76 80.5263 269.96C80.9929 269.16 81.6263 268.533 82.4263 268.08C83.2263 267.627 84.1396 267.4 85.1663 267.4C86.2063 267.4 87.1263 267.627 87.9263 268.08C88.7396 268.533 89.3729 269.16 89.8263 269.96C90.2929 270.76 90.5263 271.687 90.5263 272.74C90.5263 273.78 90.2929 274.707 89.8263 275.52C89.3729 276.32 88.7396 276.953 87.9263 277.42C87.1129 277.873 86.1929 278.1 85.1663 278.1ZM85.1663 276.84C85.9263 276.84 86.5996 276.673 87.1863 276.34C87.7729 275.993 88.2329 275.513 88.5663 274.9C88.9129 274.273 89.0863 273.553 89.0863 272.74C89.0863 271.913 88.9129 271.193 88.5663 270.58C88.2329 269.967 87.7729 269.493 87.1863 269.16C86.5996 268.813 85.9329 268.64 85.1863 268.64C84.4396 268.64 83.7729 268.813 83.1863 269.16C82.5996 269.493 82.1329 269.967 81.7863 270.58C81.4396 271.193 81.2663 271.913 81.2663 272.74C81.2663 273.553 81.4396 274.273 81.7863 274.9C82.1329 275.513 82.5996 275.993 83.1863 276.34C83.7729 276.673 84.4329 276.84 85.1663 276.84ZM93.4253 278V263.16H94.8453V278H93.4253ZM103.076 278.1C102.063 278.1 101.15 277.873 100.336 277.42C99.5364 276.953 98.9031 276.32 98.4364 275.52C97.9697 274.707 97.7364 273.78 97.7364 272.74C97.7364 271.687 97.9697 270.76 98.4364 269.96C98.9031 269.16 99.5364 268.533 100.336 268.08C101.136 267.627 102.05 267.4 103.076 267.4C104.116 267.4 105.036 267.627 105.836 268.08C106.65 268.533 107.283 269.16 107.736 269.96C108.203 270.76 108.436 271.687 108.436 272.74C108.436 273.78 108.203 274.707 107.736 275.52C107.283 276.32 106.65 276.953 105.836 277.42C105.023 277.873 104.103 278.1 103.076 278.1ZM103.076 276.84C103.836 276.84 104.51 276.673 105.096 276.34C105.683 275.993 106.143 275.513 106.476 274.9C106.823 274.273 106.996 273.553 106.996 272.74C106.996 271.913 106.823 271.193 106.476 270.58C106.143 269.967 105.683 269.493 105.096 269.16C104.51 268.813 103.843 268.64 103.096 268.64C102.35 268.64 101.683 268.813 101.096 269.16C100.51 269.493 100.043 269.967 99.6964 270.58C99.3497 271.193 99.1764 271.913 99.1764 272.74C99.1764 273.553 99.3497 274.273 99.6964 274.9C100.043 275.513 100.51 275.993 101.096 276.34C101.683 276.673 102.343 276.84 103.076 276.84ZM111.335 278V267.5H112.695V270.36L112.555 269.86C112.849 269.06 113.342 268.453 114.035 268.04C114.729 267.613 115.589 267.4 116.615 267.4V268.78C116.562 268.78 116.509 268.78 116.455 268.78C116.402 268.767 116.349 268.76 116.295 268.76C115.189 268.76 114.322 269.1 113.695 269.78C113.069 270.447 112.755 271.4 112.755 272.64V278H111.335ZM119.503 269.58C119.209 269.58 118.956 269.473 118.743 269.26C118.543 269.047 118.443 268.787 118.443 268.48C118.443 268.16 118.543 267.9 118.743 267.7C118.956 267.5 119.209 267.4 119.503 267.4C119.796 267.4 120.043 267.5 120.243 267.7C120.456 267.9 120.563 268.16 120.563 268.48C120.563 268.787 120.456 269.047 120.243 269.26C120.043 269.473 119.796 269.58 119.503 269.58ZM119.503 278.1C119.209 278.1 118.956 277.993 118.743 277.78C118.543 277.567 118.443 277.307 118.443 277C118.443 276.68 118.543 276.42 118.743 276.22C118.956 276.02 119.209 275.92 119.503 275.92C119.796 275.92 120.043 276.02 120.243 276.22C120.456 276.42 120.563 276.68 120.563 277C120.563 277.307 120.456 277.567 120.243 277.78C120.043 277.993 119.796 278.1 119.503 278.1ZM135.015 278L136.735 264H137.815L136.095 278H135.015ZM127.435 274.2V273.1H139.535V274.2H127.435ZM129.815 278L131.535 264H132.635L130.895 278H129.815ZM128.075 268.9V267.8H140.175V268.9H128.075ZM146.181 263.88C147.421 263.88 148.468 264.16 149.321 264.72C150.175 265.267 150.821 266.06 151.261 267.1C151.701 268.14 151.921 269.4 151.921 270.88C151.921 272.453 151.648 273.78 151.101 274.86C150.568 275.94 149.821 276.753 148.861 277.3C147.901 277.847 146.788 278.12 145.521 278.12C144.895 278.12 144.295 278.06 143.721 277.94C143.161 277.82 142.655 277.627 142.201 277.36L142.781 276.2C143.141 276.44 143.555 276.613 144.021 276.72C144.501 276.813 144.995 276.86 145.501 276.86C147.008 276.86 148.208 276.38 149.101 275.42C150.008 274.46 150.461 273.027 150.461 271.12C150.461 270.813 150.441 270.447 150.401 270.02C150.375 269.593 150.301 269.167 150.181 268.74L150.681 269.12C150.548 269.813 150.261 270.407 149.821 270.9C149.395 271.38 148.861 271.747 148.221 272C147.595 272.253 146.895 272.38 146.121 272.38C145.201 272.38 144.381 272.207 143.661 271.86C142.955 271.513 142.401 271.027 142.001 270.4C141.601 269.773 141.401 269.033 141.401 268.18C141.401 267.3 141.608 266.54 142.021 265.9C142.435 265.26 143.001 264.767 143.721 264.42C144.455 264.06 145.275 263.88 146.181 263.88ZM146.241 265.1C145.575 265.1 144.981 265.227 144.461 265.48C143.955 265.72 143.555 266.067 143.261 266.52C142.968 266.973 142.821 267.513 142.821 268.14C142.821 269.06 143.135 269.793 143.761 270.34C144.401 270.887 145.261 271.16 146.341 271.16C147.061 271.16 147.688 271.027 148.221 270.76C148.768 270.493 149.188 270.127 149.481 269.66C149.788 269.193 149.941 268.673 149.941 268.1C149.941 267.58 149.801 267.093 149.521 266.64C149.241 266.187 148.828 265.82 148.281 265.54C147.735 265.247 147.055 265.1 146.241 265.1ZM159.329 278.12C158.209 278.12 157.242 277.96 156.429 277.64C155.629 277.32 155.009 276.86 154.569 276.26C154.142 275.647 153.929 274.927 153.929 274.1C153.929 273.3 154.135 272.62 154.549 272.06C154.975 271.487 155.589 271.047 156.389 270.74C157.202 270.433 158.182 270.28 159.329 270.28C160.462 270.28 161.435 270.433 162.249 270.74C163.062 271.047 163.682 271.487 164.109 272.06C164.549 272.62 164.769 273.3 164.769 274.1C164.769 274.927 164.549 275.647 164.109 276.26C163.669 276.86 163.042 277.32 162.229 277.64C161.415 277.96 160.449 278.12 159.329 278.12ZM159.329 276.9C160.569 276.9 161.535 276.647 162.229 276.14C162.935 275.633 163.289 274.947 163.289 274.08C163.289 273.213 162.935 272.533 162.229 272.04C161.535 271.533 160.569 271.28 159.329 271.28C158.089 271.28 157.122 271.533 156.429 272.04C155.735 272.533 155.389 273.213 155.389 274.08C155.389 274.947 155.735 275.633 156.429 276.14C157.122 276.647 158.089 276.9 159.329 276.9ZM159.329 271.1C158.289 271.1 157.402 270.96 156.669 270.68C155.949 270.4 155.395 270 155.009 269.48C154.622 268.947 154.429 268.313 154.429 267.58C154.429 266.807 154.629 266.147 155.029 265.6C155.442 265.04 156.015 264.613 156.749 264.32C157.482 264.027 158.342 263.88 159.329 263.88C160.315 263.88 161.175 264.027 161.909 264.32C162.655 264.613 163.235 265.04 163.649 265.6C164.062 266.147 164.269 266.807 164.269 267.58C164.269 268.313 164.075 268.947 163.689 269.48C163.302 270 162.735 270.4 161.989 270.68C161.255 270.96 160.369 271.1 159.329 271.1ZM159.329 270.14C160.422 270.14 161.275 269.913 161.889 269.46C162.502 269.007 162.809 268.4 162.809 267.64C162.809 266.84 162.489 266.22 161.849 265.78C161.222 265.327 160.382 265.1 159.329 265.1C158.275 265.1 157.435 265.327 156.809 265.78C156.182 266.22 155.869 266.833 155.869 267.62C155.869 268.393 156.169 269.007 156.769 269.46C157.382 269.913 158.235 270.14 159.329 270.14ZM169.203 278V264.6L169.843 265.28H165.903V264H170.643V278H169.203ZM173.729 278V276.98L179.549 271.28C180.083 270.76 180.483 270.307 180.749 269.92C181.016 269.52 181.196 269.147 181.289 268.8C181.383 268.453 181.429 268.127 181.429 267.82C181.429 267.007 181.149 266.367 180.589 265.9C180.043 265.433 179.229 265.2 178.149 265.2C177.323 265.2 176.589 265.327 175.949 265.58C175.323 265.833 174.783 266.227 174.329 266.76L173.309 265.88C173.856 265.24 174.556 264.747 175.409 264.4C176.263 264.053 177.216 263.88 178.269 263.88C179.216 263.88 180.036 264.033 180.729 264.34C181.423 264.633 181.956 265.067 182.329 265.64C182.716 266.213 182.909 266.887 182.909 267.66C182.909 268.113 182.843 268.56 182.709 269C182.589 269.44 182.363 269.907 182.029 270.4C181.709 270.88 181.236 271.427 180.609 272.04L175.269 277.28L174.869 276.72H183.549V278H173.729ZM187.796 278V264.6L188.436 265.28H184.496V264H189.236V278H187.796ZM192.323 278V276.98L198.143 271.28C198.676 270.76 199.076 270.307 199.343 269.92C199.61 269.52 199.79 269.147 199.883 268.8C199.976 268.453 200.023 268.127 200.023 267.82C200.023 267.007 199.743 266.367 199.183 265.9C198.636 265.433 197.823 265.2 196.743 265.2C195.916 265.2 195.183 265.327 194.543 265.58C193.916 265.833 193.376 266.227 192.923 266.76L191.903 265.88C192.45 265.24 193.15 264.747 194.003 264.4C194.856 264.053 195.81 263.88 196.863 263.88C197.81 263.88 198.63 264.033 199.323 264.34C200.016 264.633 200.55 265.067 200.923 265.64C201.31 266.213 201.503 266.887 201.503 267.66C201.503 268.113 201.436 268.56 201.303 269C201.183 269.44 200.956 269.907 200.623 270.4C200.303 270.88 199.83 271.427 199.203 272.04L193.863 277.28L193.463 276.72H202.143V278H192.323Z" fill="#222222"/>
</svg>
